# xmcd CD database file
#
# Track frame offsets:
#	150
#	26300
#	45986
#	80791
#	96453
#	127573
#	149989
#	168397
#	203182
#	221444
#	252261
#	267823
#
# Disc length: 3829 seconds
#
# Revision: 0
# Processed by: cddbd v1.5.2PL0 Copyright (c) Steve Scherf et al.
# Submitted via: CDex 1.70beta2
#
DISCID=a70ef30c
DTITLE=Clifford Brown - Jazz Giants - Super Best 
DYEAR=2008
DGENRE=Jazz
TTITLE0=CHEROKEE
TTITLE1=YOU'D BE SO NICE TO COME HOME TO
TTITLE2=I GET A KICK OUT OF YOU
TTITLE3=WHAT'S NEW
TTITLE4=JOY SPRING
TTITLE5=SANDU
TTITLE6=JORDU
TTITLE7=WHAT IS THIS THING CALLED LOVE
TTITLE8=LULLABY OF BIRDLAND
TTITLE9=BLUES WALK,THE
TTITLE10=STARDUST
TTITLE11=LOVE IS A MANY SPLENDORED THING
EXTD=YEAR: 2008
EXTT0=
EXTT1=
EXTT2=
EXTT3=
EXTT4=
EXTT5=
EXTT6=
EXTT7=
EXTT8=
EXTT9=
EXTT10=
EXTT11=
PLAYORDER=
